<?xml version="1.0" encoding="UTF-8"?> <svg xmlns="http://www.w3.org/2000/svg" xmlns:xlink="http://www.w3.org/1999/xlink" width="168" height="35" viewBox="0 0 168 35"><defs><path id="gk6v6g1nxa" d="M0 0h27.227v26H0z"></path><path id="w11dy93fxc" d="M0 34.1h167.81V0H0z"></path></defs><g transform="translate(0 .55)" fill="none" fill-rule="evenodd"><g transform="translate(74.667 8.1)"><mask id="1h61e59mbb" fill="#fff"><use xlink:href="#gk6v6g1nxa"></use></mask><path d="M6.644 24.32c-2.07-1.119-3.696-2.672-4.875-4.658C.59 17.676 0 15.455 0 13c0-2.456.59-4.677 1.77-6.663C2.947 4.351 4.572 2.798 6.643 1.68 8.714.56 11.037 0 13.614 0c2.576 0 4.898.559 6.97 1.68 2.07 1.118 3.694 2.665 4.874 4.64 1.18 1.974 1.77 4.2 1.77 6.68 0 2.48-.59 4.706-1.77 6.68-1.18 1.974-2.805 3.521-4.875 4.64-2.07 1.12-4.393 1.68-6.97 1.68-2.576 0-4.898-.56-6.97-1.68m11.52-3.575a8.235 8.235 0 0 0 3.178-3.177c.77-1.36 1.156-2.883 1.156-4.568 0-1.685-.385-3.208-1.156-4.568a8.246 8.246 0 0 0-3.177-3.179c-1.35-.758-2.866-1.136-4.55-1.136-1.686 0-3.203.378-4.55 1.136a8.234 8.234 0 0 0-3.178 3.179C5.115 9.792 4.73 11.315 4.73 13c0 1.685.384 3.208 1.155 4.568a8.223 8.223 0 0 0 3.177 3.177c1.348.759 2.865 1.138 4.55 1.138 1.685 0 3.202-.38 4.55-1.138" fill="#FFF" mask="url(#1h61e59mbb)"></path></g><path d="M115.288 16.19v3.866a5.156 5.156 0 0 0-.943-.097c-1.581 0-2.816.46-3.704 1.38-.89.922-1.333 2.25-1.333 3.982v8.418h-4.063V16.384h3.868v2.534c1.17-1.819 3.228-2.729 6.175-2.729" fill="#FFF"></path><mask id="a9ggdefj1d" fill="#fff"><use xlink:href="#w11dy93fxc"></use></mask><path fill="#FFF" mask="url(#a9ggdefj1d)" d="M119.456 33.739h4.063V16.384h-4.063zM131.602 32.83a8.288 8.288 0 0 1-3.298-3.17c-.792-1.354-1.186-2.886-1.186-4.6 0-1.71.394-3.238 1.186-4.581.79-1.343 1.89-2.394 3.298-3.153 1.409-.758 2.99-1.137 4.746-1.137 1.775 0 3.368.379 4.777 1.137 1.408.759 2.508 1.81 3.298 3.153.791 1.343 1.187 2.871 1.187 4.582 0 1.713-.396 3.245-1.187 4.6a8.289 8.289 0 0 1-3.298 3.168c-1.41.758-3.002 1.137-4.777 1.137-1.756 0-3.337-.379-4.746-1.137m8.45-3.835c.976-.997 1.463-2.308 1.463-3.933s-.487-2.936-1.462-3.932c-.976-.997-2.21-1.495-3.705-1.495-1.496 0-2.725.498-3.69 1.495-.964.996-1.445 2.307-1.445 3.932s.481 2.936 1.445 3.933c.965.996 2.194 1.495 3.69 1.495 1.494 0 2.73-.499 3.705-1.495M163.81 18.106c1.32 1.279 1.982 3.175 1.982 5.687v9.946h-4.062v-9.425c0-1.516-.358-2.66-1.073-3.429-.715-.769-1.733-1.154-3.054-1.154-1.496 0-2.677.45-3.543 1.35-.867.898-1.3 2.193-1.3 3.883v8.775h-4.063V16.384h3.868v2.243a6.346 6.346 0 0 1 2.535-1.82c1.018-.412 2.166-.618 3.445-.618 2.188 0 3.943.639 5.265 1.917M23.76 8.258l-9.857 16.755L3.863 8.258H0v25.277h4.478V16.997l8.305 13.65h2.094l8.306-13.867.036 16.755h4.442l-.036-25.277zM49.104 26.158H35.486c.239 1.278.861 2.291 1.869 3.039 1.007.746 2.259 1.12 3.754 1.12 1.906 0 3.477-.627 4.712-1.884l2.178 2.503c-.78.93-1.766 1.636-2.957 2.112-1.193.476-2.536.715-4.03.715-1.908 0-3.587-.379-5.039-1.138-1.45-.758-2.572-1.815-3.363-3.168-.792-1.354-1.186-2.887-1.186-4.6 0-1.69.384-3.211 1.154-4.565a8.18 8.18 0 0 1 3.201-3.169c1.364-.759 2.903-1.138 4.615-1.138 1.69 0 3.201.374 4.533 1.122a7.938 7.938 0 0 1 3.12 3.153c.748 1.353 1.122 2.92 1.122 4.695 0 .282-.022.683-.065 1.203m-12.01-5.77c-.898.77-1.446 1.794-1.64 3.072H45.3c-.174-1.256-.704-2.275-1.592-3.055-.89-.78-1.994-1.17-3.315-1.17-1.3 0-2.4.385-3.3 1.154M70.788 9.42v24.115h-3.9v-2.242a6.282 6.282 0 0 1-2.486 1.852c-.986.411-2.075.618-3.266.618-1.669 0-3.169-.368-4.5-1.106a7.93 7.93 0 0 1-3.138-3.136c-.758-1.353-1.137-2.908-1.137-4.663 0-1.755.379-3.304 1.137-4.648a7.963 7.963 0 0 1 3.137-3.12c1.332-.736 2.832-1.105 4.501-1.105 1.148 0 2.199.196 3.152.585.953.39 1.766.976 2.438 1.756V9.42h4.062zm-6.532 20.2a4.815 4.815 0 0 0 1.852-1.902c.455-.823.683-1.777.683-2.86s-.228-2.036-.683-2.86a4.818 4.818 0 0 0-1.852-1.902c-.78-.443-1.658-.665-2.632-.665-.976 0-1.854.222-2.633.665a4.817 4.817 0 0 0-1.852 1.902c-.455.824-.683 1.777-.683 2.86s.228 2.037.683 2.86a4.813 4.813 0 0 0 1.852 1.901c.78.444 1.657.666 2.633.666.974 0 1.851-.222 2.632-.666z"></path><path d="M148.52 5.222a2.42 2.42 0 1 0-4.84 0 2.42 2.42 0 0 0 4.84 0" fill="#00DAE0" mask="url(#a9ggdefj1d)"></path><path d="M140.431 5.222a5.222 5.222 0 1 0-10.444 0 5.222 5.222 0 0 0 10.444 0" fill="#00D36E" mask="url(#a9ggdefj1d)"></path><path d="M118.13 5.222a2.41 2.41 0 1 0-4.82 0 2.41 2.41 0 0 0 4.82 0M167.81 5.222a2.678 2.678 0 1 0-5.357 0 2.678 2.678 0 0 0 5.357 0" fill="#FFC93A" mask="url(#a9ggdefj1d)"></path><path d="M126.737 5.222a2.678 2.678 0 1 0-5.357 0 2.678 2.678 0 0 0 5.357 0" fill="#00D36E" mask="url(#a9ggdefj1d)"></path><path d="M110.06 5.222a5.222 5.222 0 1 0-10.445 0 5.222 5.222 0 0 0 10.444 0" fill="#FFC93A" mask="url(#a9ggdefj1d)"></path><path d="M159.203 5.222a3.717 3.717 0 1 0-7.434 0 3.717 3.717 0 0 0 7.434 0" fill="#00DAE0" mask="url(#a9ggdefj1d)"></path></g></svg> 