<?xml version="1.0" encoding="UTF-8"?> <svg xmlns="http://www.w3.org/2000/svg" width="200" height="41" viewBox="0 0 200 41" fill="none"><g clip-path="url(#clip0_894_546)"><path d="M110.641 34.3382C112.246 33.451 113.507 32.2034 114.43 30.6092C115.345 29.015 115.81 27.2268 115.81 25.2514C115.81 23.276 115.352 21.4877 114.43 19.8935C113.514 18.2994 112.246 17.0587 110.641 16.1646C109.035 15.2774 107.225 14.8338 105.218 14.8338C103.211 14.8338 101.401 15.2774 99.7957 16.1646C98.1901 17.0587 96.9225 18.2994 96.007 19.8935C95.0845 21.4877 94.6267 23.276 94.6267 25.2514C94.6267 27.2268 95.0845 29.015 96.007 30.6092C96.9225 32.2034 98.1901 33.4441 99.7957 34.3382C101.401 35.2254 103.211 35.6759 105.218 35.6759C107.225 35.6759 109.035 35.2323 110.641 34.3382ZM96.9084 38.5316C94.4436 37.2216 92.5 35.3987 91.0986 33.0698C89.6901 30.7409 88.9929 28.1348 88.9929 25.2583C88.9929 22.3818 89.6971 19.7688 91.0986 17.4399C92.5 15.111 94.4436 13.2881 96.9084 11.9781C99.3802 10.6612 102.141 10.0096 105.218 10.0096C108.296 10.0096 111.056 10.6681 113.528 11.9781C115.993 13.2881 117.93 15.1041 119.338 17.4191C120.746 19.7341 121.444 22.3472 121.444 25.2583C121.444 28.1694 120.739 30.7755 119.338 33.0975C117.93 35.4125 115.993 37.2285 113.528 38.5385C111.056 39.8485 108.289 40.507 105.218 40.507C102.148 40.507 99.3802 39.8485 96.9084 38.5385" fill="#1D2424"></path><path d="M137.401 19.4915V24.0315C136.986 23.9552 136.613 23.9136 136.275 23.9136C134.387 23.9136 132.915 24.4543 131.859 25.5355C130.803 26.6168 130.268 28.1694 130.268 30.2072V40.0841H125.422V19.7272H130.035V22.7007C131.43 20.5659 133.88 19.4984 137.394 19.4984" fill="#1D2424"></path><path d="M147.218 19.7202H142.373V40.0772H147.218V19.7202Z" fill="#1D2424"></path><path d="M166.916 34.5114C168.077 33.34 168.655 31.8082 168.655 29.8952C168.655 27.9822 168.077 26.4504 166.916 25.286C165.754 24.1146 164.282 23.5324 162.5 23.5324C160.718 23.5324 159.254 24.1146 158.106 25.286C156.958 26.4573 156.38 27.9891 156.38 29.8952C156.38 31.8013 156.958 33.34 158.106 34.5114C159.254 35.6828 160.718 36.265 162.5 36.265C164.282 36.265 165.754 35.6828 166.916 34.5114ZM156.845 39.0098C155.169 38.1226 153.859 36.8819 152.915 35.2946C151.972 33.7074 151.5 31.9122 151.5 29.9022C151.5 27.8921 151.972 26.1039 152.915 24.5235C153.859 22.9502 155.169 21.7164 156.845 20.8292C158.521 19.942 160.408 19.4984 162.5 19.4984C164.592 19.4984 166.514 19.942 168.19 20.8292C169.866 21.7164 171.176 22.9502 172.12 24.5235C173.063 26.0969 173.535 27.8921 173.535 29.9022C173.535 31.9122 173.063 33.7074 172.12 35.2946C171.176 36.8819 169.866 38.1226 168.19 39.0098C166.514 39.897 164.613 40.3406 162.5 40.3406C160.387 40.3406 158.521 39.897 156.845 39.0098Z" fill="#1D2424"></path><path d="M195.232 21.7372C196.81 23.2344 197.592 25.4593 197.592 28.405V40.0703H192.746V29.015C192.746 27.2337 192.324 25.896 191.465 24.9949C190.613 24.0938 189.401 23.6433 187.824 23.6433C186.042 23.6433 184.634 24.1701 183.599 25.2236C182.563 26.2772 182.049 27.7951 182.049 29.7774V40.0703H177.204V19.7133H181.81V22.3472C182.613 21.4045 183.62 20.6975 184.831 20.2124C186.042 19.7272 187.415 19.4915 188.937 19.4915C191.542 19.4915 193.634 20.2401 195.211 21.7372" fill="#1D2424"></path><path d="M27.6761 39.8346L27.6268 20.1847L17.7324 36.4522H15.2324L5.33803 20.4411V39.8346H0V10.1829H4.60563L16.5704 29.8398L28.3169 10.1829H32.9225L32.9648 39.8346H27.6761Z" fill="#1D2424"></path><path d="M44.2112 24.4196C43.1408 25.3207 42.4859 26.5198 42.2535 28.0238H53.9929C53.7887 26.5475 53.1549 25.3553 52.0915 24.4404C51.0352 23.5255 49.7183 23.068 48.1408 23.068C46.5633 23.068 45.2816 23.5186 44.2112 24.4196ZM58.5211 31.1845H42.2887C42.5704 32.6816 43.3168 33.8738 44.514 34.7471C45.7112 35.6204 47.2042 36.064 48.9859 36.064C51.2605 36.064 53.1337 35.3293 54.6056 33.853L57.2042 36.7849C56.2746 37.88 55.0985 38.7048 53.676 39.2663C52.2535 39.8277 50.6549 40.1049 48.8732 40.1049C46.5985 40.1049 44.5985 39.6613 42.8661 38.7741C41.1337 37.8869 39.8028 36.6463 38.8591 35.059C37.9154 33.4718 37.4436 31.6697 37.4436 29.6665C37.4436 27.6634 37.9014 25.896 38.8168 24.3087C39.7323 22.7215 41.007 21.4808 42.6337 20.5936C44.2605 19.7064 46.0915 19.2559 48.1337 19.2559C50.176 19.2559 51.9506 19.6925 53.5352 20.5728C55.1267 21.4461 56.3661 22.6799 57.2535 24.2741C58.1408 25.8613 58.5915 27.6981 58.5915 29.7844C58.5915 30.1171 58.5633 30.5815 58.514 31.1983" fill="#1D2424"></path><path d="M76.5845 35.2461C77.5141 34.7263 78.2465 33.9847 78.7888 33.0143C79.331 32.0509 79.6057 30.928 79.6057 29.6596C79.6057 28.3912 79.331 27.2683 78.7888 26.3049C78.2465 25.3414 77.5141 24.5929 76.5845 24.073C75.655 23.5532 74.6127 23.2898 73.4437 23.2898C72.2747 23.2898 71.2324 23.5532 70.3029 24.073C69.3733 24.5929 68.6409 25.3414 68.0986 26.3049C67.5564 27.2683 67.2817 28.3912 67.2817 29.6596C67.2817 30.928 67.5564 32.0509 68.0986 33.0143C68.6409 33.9777 69.3733 34.7263 70.3029 35.2461C71.2324 35.766 72.2747 36.0294 73.4437 36.0294C74.6127 36.0294 75.6479 35.766 76.5845 35.2461ZM84.3662 11.5483V39.8346H79.7184V37.2077C78.9155 38.1711 77.9296 38.8989 76.7536 39.3771C75.5775 39.8623 74.2817 40.1049 72.8592 40.1049C70.8733 40.1049 69.0845 39.6752 67.493 38.8088C65.9014 37.9424 64.662 36.7225 63.7536 35.1283C62.8522 33.5411 62.3944 31.7182 62.3944 29.6596C62.3944 27.601 62.8451 25.785 63.7536 24.2047C64.655 22.6313 65.9014 21.4114 67.493 20.545C69.0775 19.6786 70.8662 19.2489 72.8592 19.2489C74.2254 19.2489 75.4789 19.4776 76.6127 19.9351C77.7465 20.3926 78.7184 21.0788 79.5212 21.9937V11.5483H84.3662Z" fill="#1D2424"></path><path d="M177.007 6.62716C177.007 5.06071 175.718 3.7923 174.127 3.7923C172.535 3.7923 171.246 5.06071 171.246 6.62716C171.246 8.19361 172.535 9.46203 174.127 9.46203C175.718 9.46203 177.007 8.19361 177.007 6.62716Z" fill="#00DCFF"></path><path d="M167.366 6.62719C167.366 3.24476 164.577 0.5 161.141 0.5C157.704 0.5 154.916 3.24476 154.916 6.62719C154.916 10.0096 157.704 12.7544 161.141 12.7544C164.577 12.7544 167.366 10.0096 167.366 6.62719Z" fill="#00D26E"></path><path d="M140.789 6.62719C140.789 5.06767 139.5 3.79926 137.915 3.79926C136.331 3.79926 135.042 5.06767 135.042 6.62719C135.042 8.18671 136.331 9.45512 137.915 9.45512C139.5 9.45512 140.789 8.18671 140.789 6.62719Z" fill="#FFC93A"></path><path d="M200 6.6272C200 4.8944 198.57 3.48737 196.81 3.48737C195.049 3.48737 193.62 4.8944 193.62 6.6272C193.62 8.36 195.049 9.76704 196.81 9.76704C198.57 9.76704 200 8.36 200 6.6272Z" fill="#FFC93A"></path><path d="M151.049 6.6272C151.049 4.8944 149.62 3.48737 147.859 3.48737C146.099 3.48737 144.669 4.8944 144.669 6.6272C144.669 8.36 146.099 9.76704 147.859 9.76704C149.62 9.76704 151.049 8.36 151.049 6.6272Z" fill="#00D26E"></path><path d="M131.169 6.62719C131.169 3.24476 128.38 0.5 124.944 0.5C121.507 0.5 118.718 3.24476 118.718 6.62719C118.718 10.0096 121.507 12.7544 124.944 12.7544C128.38 12.7544 131.169 10.0096 131.169 6.62719Z" fill="#FFC93A"></path><path d="M189.739 6.62719C189.739 4.22206 187.753 2.26746 185.31 2.26746C182.866 2.26746 180.88 4.22206 180.88 6.62719C180.88 9.03231 182.866 10.9869 185.31 10.9869C187.753 10.9869 189.739 9.03231 189.739 6.62719Z" fill="#00DCFF"></path></g><defs><clipPath id="clip0_894_546"><rect width="200" height="40" fill="white" transform="translate(0 0.5)"></rect></clipPath></defs></svg> 